<?xml version="1.0" encoding="utf-8" ?>
<svg xmlns="http://www.w3.org/2000/svg" xmlns:xlink="http://www.w3.org/1999/xlink" width="1024" height="1024">
	<path fill="#020B29" d="M511.273 63.7383C511.74 64.0352 511.765 64.0282 512.154 64.3494C518.545 69.6291 524.472 81.0826 529.838 87.8949C537.686 97.8565 547 107.073 556.179 115.796C579.054 137.536 604.806 156.072 626.526 179.015C677.404 232.756 708.287 308.132 722.308 380.018C726.253 400.243 728.522 420.748 730.454 441.247C778.013 452.784 821.115 475.94 864.312 498.07C856.73 509.539 850.106 521.851 842.805 533.542C833.674 548.163 823.78 562.364 815.526 577.508C825.108 581.991 834.462 587.335 843.858 592.216C863.288 602.311 882.511 612.368 901.061 624.034C890.352 641.869 876.548 658.187 863.687 674.485C804.272 749.783 729.72 817.584 651.466 872.914Q614.509 898.91 575.817 922.245Q555.967 934.513 535.8 946.254C528.101 950.677 520.156 955.497 511.849 958.691C497.156 951.603 483.175 942.504 469.051 934.338Q432.274 913.483 397.023 890.142Q381.57 879.802 366.473 868.949Q351.375 858.096 336.65 846.744Q321.925 835.391 307.589 823.551Q293.252 811.711 279.321 799.398Q265.389 787.084 251.878 774.31Q238.367 761.537 225.292 748.317Q212.217 735.098 199.592 721.448Q186.967 707.798 174.807 693.732Q156.961 673.108 140.867 651.088C134.282 642.205 127.6 633.264 122.053 623.682Q147.217 611.313 171.991 598.179C184.38 591.595 196.664 584.512 209.541 578.916C193.921 551.619 175.036 526.145 159.792 498.664C170.863 491.575 182.941 485.554 194.78 479.872C226.792 464.505 259.87 452.425 293.811 442.108C294.074 435.727 295.174 429.195 295.956 422.844C298.255 404.185 301.275 385.998 305.475 367.666C322.514 293.293 351.279 222.99 407.066 169.202C423.279 153.57 441.332 140.027 458.106 125.028C478.494 106.798 495.72 86.1597 511.273 63.7383ZM511.795 144.722Q495.873 158.248 479.647 171.409C453.889 192.222 428.377 212.647 407.911 238.955L406.19 241.01C408.759 244.68 412.017 248.13 414.869 251.6Q422.271 260.566 429.326 269.807C400.106 299.774 376.423 333.779 361.997 373.272C348.431 410.412 342.393 450.75 342.04 490.204Q341.905 508.499 341.575 526.791C341.461 533.975 341.791 541.723 340.637 548.818C339.802 553.95 337.194 557.466 333.793 561.181C341.671 577.934 356.124 592.57 368.866 605.718Q391.151 629.095 415.378 650.454C434.169 666.766 454.245 681.545 474.17 696.42C486.773 705.829 499.135 715.525 511.864 724.767C523.323 716.969 533.765 707.8 544.919 699.597C586.354 669.128 627.179 637.878 661.398 599.186C671.458 587.811 680.575 575.643 689.75 563.556C680.71 550.705 682.283 537.577 682.522 522.658C682.885 499.951 681.096 476.431 678.784 453.853C674.216 409.23 666.148 373.917 643.874 334.744C637.166 322.946 629.959 311.536 621.461 300.937C612.902 290.259 603.283 280.492 593.771 270.673C599.768 259.547 609.08 250.283 616.121 239.803L615.051 238.644C586.899 201.282 546.794 175.033 511.795 144.722Z"/>
	<path fill="#B4C6DA" d="M301.361 603.063C286.076 566.415 311.811 558.774 317.505 526.189C319.096 517.084 319.153 507.711 319.653 498.503C320.474 483.371 321.477 468.249 324.272 453.337C325.394 454.525 325.908 455.591 327.564 455.786C328.314 455.194 329.038 454.615 329.716 453.942C328.704 465.084 327.123 476.171 326.086 487.316C324.19 507.685 323.383 527.921 317.1 547.583C315.123 553.769 312.304 559.562 309.394 565.351C308.006 568.114 306.238 570.999 305.227 573.91C302.4 580.982 301.108 587.489 301.268 595.131C301.32 597.637 301.841 600.635 301.361 603.063Z"/>
	<path fill="#0DBFF5" d="M170.661 634.659C201.475 619.329 233.05 601.207 264.409 587.542C265.041 592.309 265.894 596.955 267.338 601.548C263.97 605.609 210.927 629.017 202.965 632.788C194.681 636.711 186.721 641.164 178.318 644.872C175.694 641.519 173.031 638.199 170.661 634.659Z"/>
	<path fill="#0DBFF5" d="M756.95 583.652Q782.326 597.868 808.063 611.42C824.235 620.098 840.393 628.859 857.006 636.678C854.178 639.854 851.271 642.983 848.756 646.418C834.252 641.006 821.049 632.383 807.356 625.276C790.659 616.611 773.504 609.063 756.333 601.414C757.06 595.443 757.133 589.653 756.95 583.652Z"/>
	<path fill="#0DBFF5" d="M207.385 513.105C232.963 499.007 261.283 487.45 289.534 480.073C289.57 486.769 288.984 493.309 288.496 499.977C287.558 518.979 282.441 534.357 272.642 550.621C266.881 552.67 261.384 555.337 255.373 556.619C250.019 557.856 244.929 560.499 240.11 563.058C236.987 557.374 233.066 551.87 229.474 546.461C222.101 535.36 214.479 524.384 207.385 513.105Z"/>
	<path fill="#153E6F" d="M233.872 522.511C252.332 514.643 269.655 507.197 288.496 499.977C287.558 518.979 282.441 534.357 272.642 550.621C266.881 552.67 261.384 555.337 255.373 556.619C248.201 544.984 239.602 535.122 233.872 522.511Z"/>
	<path fill="#0DBFF5" d="M733.959 477.45C753.459 483.418 771.888 490.781 790.553 498.956C799.249 502.765 808.083 506.423 816.387 511.045C805.521 529.76 792.935 547.648 781.568 566.099C777.254 563.92 772.961 561.585 768.529 559.658C763.327 559.205 753.811 553.777 748.82 551.494C746.238 544.61 742.318 539.317 738.71 533.017C732.867 522.817 734.806 507.886 734.875 496.516C733.924 490.311 734.18 483.729 733.959 477.45Z"/>
	<path fill="#153E6F" d="M734.875 496.516Q753.092 503.764 771.148 511.402C778.54 514.606 785.775 518.412 793.277 521.316C787.696 530.984 781.456 540.175 775.244 549.438C772.982 552.81 771.034 556.465 768.529 559.658C763.327 559.205 753.811 553.777 748.82 551.494C746.238 544.61 742.318 539.317 738.71 533.017C732.867 522.817 734.806 507.886 734.875 496.516Z"/>
	<path fill="#FEFEFE" d="M511.672 116.805C520.183 125.82 527.709 135.51 536.797 144.007C561.142 166.771 587.988 187.027 610.66 211.538C627.497 229.741 640.432 250.292 651.579 272.373C691.688 351.825 697.162 435.16 705.604 521.972C706.161 527.706 707.001 533.121 709.155 538.499C716.71 557.356 730.337 565.02 729.761 587.704Q729.646 591.568 729.353 595.423C727.345 591.93 727.372 585.499 726.491 581.388C724.597 576.843 722.474 572.012 719.782 567.884C713.964 558.964 705.976 551.13 702.895 540.684C699.958 530.724 700.179 519.81 699.401 509.505Q698.107 493.451 696.26 477.452C687.296 404.171 677.634 345.958 641.593 279.988C634.059 266.197 626.089 252.002 616.121 239.803L615.051 238.644C586.899 201.282 546.794 175.033 511.795 144.722Q495.873 158.248 479.647 171.409C453.889 192.222 428.377 212.647 407.911 238.955L406.19 241.01C397.087 252.171 389.586 265.141 382.577 277.684C358.42 320.913 344.638 367.062 335.796 415.619C333.479 428.344 331.851 441.186 329.716 453.942C329.038 454.615 328.314 455.194 327.564 455.786C325.908 455.591 325.394 454.525 324.272 453.337Q328.223 420.346 334.898 387.797C348.976 315.571 372.67 250.757 425.764 198.011C445.206 178.697 467.314 162.224 487.246 143.418C495.999 135.159 503.623 125.734 511.672 116.805Z"/>
	<path fill="#153E6F" d="M305.227 573.91C305.339 574.136 305.456 574.361 305.564 574.589C306.349 576.242 306.55 578.237 307.011 580.004Q307.422 581.563 307.964 583.081Q308.506 584.6 309.175 586.067Q309.844 587.533 310.635 588.938Q311.426 590.343 312.333 591.676C318.686 600.831 328.033 609.231 336.197 616.76C364.521 642.88 395.51 665.138 427.045 687.145C454.913 706.591 482.863 725.606 511.665 743.662C534.246 730.111 555.937 715.262 577.72 700.481C613.795 676.003 649.601 650.742 682.975 622.635Q695.469 612.303 706.834 600.74C713.281 594.256 719.503 587.283 726.491 581.388C727.372 585.499 727.345 591.93 729.353 595.423C728.619 600.854 726.857 605.164 723.876 609.741C710.659 630.033 681.061 654.379 662.103 670.345Q637.038 691.651 610.992 711.748C591.994 726.225 572.693 740.107 553.265 753.986C539.573 763.767 526.055 773.663 511.895 782.774Q468.592 754.996 427.653 723.839C396.85 700.589 316.134 635.906 301.361 603.063C301.841 600.635 301.32 597.637 301.268 595.131C301.108 587.489 302.4 580.982 305.227 573.91Z"/>
	<path fill="#607FA6" d="M616.121 239.803C626.089 252.002 634.059 266.197 641.593 279.988C677.634 345.958 687.296 404.171 696.26 477.452Q698.107 493.451 699.401 509.505C700.179 519.81 699.958 530.724 702.895 540.684C705.976 551.13 713.964 558.964 719.782 567.884C722.474 572.012 724.597 576.843 726.491 581.388C719.503 587.283 713.281 594.256 706.834 600.74Q695.469 612.303 682.975 622.635C649.601 650.742 613.795 676.003 577.72 700.481C555.937 715.262 534.246 730.111 511.665 743.662C482.863 725.606 454.913 706.591 427.045 687.145C395.51 665.138 364.521 642.88 336.197 616.76C328.033 609.231 318.686 600.831 312.333 591.676Q311.426 590.343 310.635 588.938Q309.844 587.533 309.175 586.067Q308.506 584.6 307.964 583.081Q307.422 581.563 307.011 580.004C306.55 578.237 306.349 576.242 305.564 574.589C305.456 574.361 305.339 574.136 305.227 573.91C306.238 570.999 308.006 568.114 309.394 565.351C312.304 559.562 315.123 553.769 317.1 547.583C323.383 527.921 324.19 507.685 326.086 487.316C327.123 476.171 328.704 465.084 329.716 453.942C331.851 441.186 333.479 428.344 335.796 415.619C344.638 367.062 358.42 320.913 382.577 277.684C389.586 265.141 397.087 252.171 406.19 241.01C408.759 244.68 412.017 248.13 414.869 251.6Q422.271 260.566 429.326 269.807C400.106 299.774 376.423 333.779 361.997 373.272C348.431 410.412 342.393 450.75 342.04 490.204Q341.905 508.499 341.575 526.791C341.461 533.975 341.791 541.723 340.637 548.818C339.802 553.95 337.194 557.466 333.793 561.181C341.671 577.934 356.124 592.57 368.866 605.718Q391.151 629.095 415.378 650.454C434.169 666.766 454.245 681.545 474.17 696.42C486.773 705.829 499.135 715.525 511.864 724.767C523.323 716.969 533.765 707.8 544.919 699.597C586.354 669.128 627.179 637.878 661.398 599.186C671.458 587.811 680.575 575.643 689.75 563.556C680.71 550.705 682.283 537.577 682.522 522.658C682.885 499.951 681.096 476.431 678.784 453.853C674.216 409.23 666.148 373.917 643.874 334.744C637.166 322.946 629.959 311.536 621.461 300.937C612.902 290.259 603.283 280.492 593.771 270.673C599.768 259.547 609.08 250.283 616.121 239.803Z"/>
	<path fill="#153E6F" d="M267.338 601.548C271.055 612.433 276.722 621.792 283.865 630.789C295.797 645.818 310.797 658.839 324.701 672.025Q342.474 688.947 360.827 705.239Q379.179 721.531 398.089 737.174Q416.998 752.816 436.442 767.789Q455.885 782.763 475.839 797.049C487.669 805.421 499.475 814.014 511.733 821.755C536.336 806.436 559.824 788.335 582.778 770.66Q638.027 728.855 689.478 682.456C708.491 665.359 729.004 647.982 744.455 627.496C749.6 620.674 753.908 612.643 755.796 604.256Q756.11 602.844 756.333 601.414C773.504 609.063 790.659 616.611 807.356 625.276C821.049 632.383 834.252 641.006 848.756 646.418C839.972 655.94 831.697 665.925 823.008 675.535Q796.416 704.522 768.742 732.478C746.48 754.62 722.802 774.929 698.471 794.744C679.081 810.536 659.453 826.254 637.621 838.593C648.532 821.307 659.922 804.307 670.231 786.647Q688.078 755.64 703.687 723.448Q719.296 691.257 732.59 658.042C723.482 669.994 715.618 682.584 706.006 694.214C651.246 760.472 581.084 820.644 512.434 872.274C503.931 866.82 496.013 860.26 488.031 854.071C472.96 842.385 458.24 830.548 443.718 818.18C417.477 795.832 391.067 773.57 366.328 749.545C337.803 721.843 311.879 692.278 286.031 662.118C294.816 677.998 302.02 694.477 310.297 710.585Q328.668 745.753 348.316 780.224C354.559 791.389 361.499 802.289 368.392 813.065C373.863 821.619 379.939 830.104 383.792 839.539Q356.715 820.461 330.703 799.955Q313.844 786.308 297.614 771.918Q281.385 757.528 265.818 742.424Q250.251 727.319 235.379 711.53Q220.506 695.742 206.358 679.301C196.7 668.173 185.521 657.826 178.318 644.872C186.721 641.164 194.681 636.711 202.965 632.788C210.927 629.017 263.97 605.609 267.338 601.548Z"/>
	<path fill="#020B29" d="M511.795 144.722C546.794 175.033 586.899 201.282 615.051 238.644L616.121 239.803C609.08 250.283 599.768 259.547 593.771 270.673C603.283 280.492 612.902 290.259 621.461 300.937C629.959 311.536 637.166 322.946 643.874 334.744C666.148 373.917 674.216 409.23 678.784 453.853C681.096 476.431 682.885 499.951 682.522 522.658C682.283 537.577 680.71 550.705 689.75 563.556C680.575 575.643 671.458 587.811 661.398 599.186C627.179 637.878 586.354 669.128 544.919 699.597C533.765 707.8 523.323 716.969 511.864 724.767C499.135 715.525 486.773 705.829 474.17 696.42C454.245 681.545 434.169 666.766 415.378 650.454Q391.151 629.095 368.866 605.718C356.124 592.57 341.671 577.934 333.793 561.181C337.194 557.466 339.802 553.95 340.637 548.818C341.791 541.723 341.461 533.975 341.575 526.791Q341.905 508.499 342.04 490.204C342.393 450.75 348.431 410.412 361.997 373.272C376.423 333.779 400.106 299.774 429.326 269.807Q422.271 260.566 414.869 251.6C412.017 248.13 408.759 244.68 406.19 241.01L407.911 238.955C428.377 212.647 453.889 192.222 479.647 171.409Q495.873 158.248 511.795 144.722ZM520.327 415.718C518.89 422.51 517.19 429.169 516.074 436.035C514.314 446.865 513.543 457.81 512.658 468.738C509.348 451.367 507.245 433.642 504.238 416.188C484.738 424.998 462.184 439.719 439.982 436.702C420.955 434.116 402.28 418.741 390.908 403.893C391.34 408.154 391.339 413.461 392.845 417.431C393.566 418.285 393.797 418.877 394.184 419.9C395.162 422.482 396.926 424.88 398.108 427.399C400.075 431.594 400.959 436.846 403.858 440.451C408.389 446.084 418.513 450.698 421.26 456.927C429.093 463.369 438.09 467.842 446.049 473.925C448.854 482.326 450.808 491.069 453.056 499.64Q457.862 517.928 462.978 536.132C450.569 512.61 444.603 496.304 422.023 480.125C424.273 491.321 427.439 502.304 429.645 513.542C431.373 522.349 431.998 531.524 434.401 540.164Q458.275 558.935 483.491 575.862L483.515 549.003C489.795 549.046 505.667 550.068 510.788 548.581C511.416 547.586 511.254 548.124 511.296 546.974L513.116 547.423L513.569 548.565C518.556 550.187 534.683 548.625 541.008 548.695L541.014 576.466C550.105 569.938 563.884 561.635 571.699 554.515C572.6 550.619 574.917 547.283 576.572 543.685C580.569 534.993 581.39 524.003 583.821 514.718C585.49 508.341 588.01 502.067 589.36 495.627C589.65 494.243 589.928 493.01 589.421 491.64C582.646 499.311 577.419 507.137 572.067 515.805C571.337 516.986 569.605 519.162 569.345 520.474C568.212 520.113 566.869 520.041 565.688 519.863C568.973 504.461 572.677 488.848 576.808 473.653C589.534 463.422 604.37 455.922 616.339 444.709C629.275 432.59 633.464 419.81 634.079 402.388C623.244 417.399 608.001 431.051 589.619 435.537C566.76 441.115 539.503 427.212 520.327 415.718ZM589.845 392.698C578.274 393.67 566.925 397.193 558.542 405.602C563.057 407.387 567.529 409.285 572.387 409.878C582.058 409.505 590.501 407.058 597.315 399.791C599.186 397.796 600.58 395.631 601.749 393.159C597.776 392.699 593.844 392.326 589.845 392.698ZM425.871 393.726C425.139 394.178 424.562 394.237 424.375 395.141C424.041 396.757 424.863 398.135 425.815 399.372C430.324 405.229 438.899 408.717 446.089 409.459C451.016 409.967 455.731 409.304 460.435 407.787L464.978 405.714C454.605 396.198 441.933 393.009 428.109 393.612Q426.989 393.659 425.871 393.726Z"/>
	<path fill="#607FA6" d="M392.845 417.431C393.566 418.285 393.797 418.877 394.184 419.9C395.162 422.482 396.926 424.88 398.108 427.399C400.075 431.594 400.959 436.846 403.858 440.451C408.389 446.084 418.513 450.698 421.26 456.927C416.127 454.343 411.126 449.905 407.097 445.839C400.123 438.801 392.852 427.709 392.845 417.431Z"/>
	<path fill="#0CF6F7" fill-opacity="0.98823529" d="M425.871 393.726Q426.989 393.659 428.109 393.612C441.933 393.009 454.605 396.198 464.978 405.714L460.435 407.787C455.731 409.304 451.016 409.967 446.089 409.459C438.899 408.717 430.324 405.229 425.815 399.372C424.863 398.135 424.041 396.757 424.375 395.141C424.562 394.237 425.139 394.178 425.871 393.726Z"/>
	<path fill="#0CF6F7" fill-opacity="0.98823529" d="M589.845 392.698C593.844 392.326 597.776 392.699 601.749 393.159C600.58 395.631 599.186 397.796 597.315 399.791C590.501 407.058 582.058 409.505 572.387 409.878C567.529 409.285 563.057 407.387 558.542 405.602C566.925 397.193 578.274 393.67 589.845 392.698Z"/>
	<path fill="#607FA6" d="M589.421 491.64C594.428 485.538 599.752 480.468 606.236 475.937C598.666 495.332 591.902 516.904 592.512 537.958C586.29 543.118 578.476 550.368 571.699 554.515C572.6 550.619 574.917 547.283 576.572 543.685C580.569 534.993 581.39 524.003 583.821 514.718C585.49 508.341 588.01 502.067 589.36 495.627C589.65 494.243 589.928 493.01 589.421 491.64Z"/>
	<path fill="#153E6F" d="M443.293 296.288C449.559 302.117 454.631 309.023 460.088 315.583C470.012 327.514 479.959 339.452 489.02 352.061C496.941 363.082 503.99 374.555 512.308 385.321C517.499 376.679 523.428 368.357 529.149 360.054C544.306 338.059 560.768 314.647 581.092 297.074C594.823 310.317 607.59 323.97 620.027 338.412L614.383 342.542C591.141 359.968 567.045 373.259 540.075 384.091C531.003 387.735 521.553 390.498 512.563 394.245L512.013 394.478C484.387 384.568 455.824 375.001 430.776 359.443C421.132 353.452 412.107 346.079 402.891 339.43C412.422 321.893 427.761 308.36 443.293 296.288Z"/>
	<path fill="#607FA6" d="M511.795 144.722C546.794 175.033 586.899 201.282 615.051 238.644C608.303 240.239 602.348 243.889 596.463 247.432C569.693 263.55 549.657 287.384 533.413 313.732C526.814 324.436 521.338 335.445 517.029 347.272C515.202 352.285 513.87 357.505 511.868 362.448C503.938 325.499 467.33 272.768 435.754 252.172C427.421 246.736 417.59 241.329 407.911 238.955C428.377 212.647 453.889 192.222 479.647 171.409Q495.873 158.248 511.795 144.722Z"/>
	<defs>
		<linearGradient id="gradient_0" gradientUnits="userSpaceOnUse" x1="383.7196" y1="456.04828" x2="615.3819" y2="500.70618">
			<stop offset="0" stop-color="#799FB6"/>
			<stop offset="1" stop-color="#B3D7E6"/>
		</linearGradient>
	</defs>
	<path fill="url(#gradient_0)" d="M520.327 415.718C539.503 427.212 566.76 441.115 589.619 435.537C608.001 431.051 623.244 417.399 634.079 402.388C633.464 419.81 629.275 432.59 616.339 444.709C604.37 455.922 589.534 463.422 576.808 473.653C572.677 488.848 568.973 504.461 565.688 519.863C566.869 520.041 568.212 520.113 569.345 520.474C569.605 519.162 571.337 516.986 572.067 515.805C577.419 507.137 582.646 499.311 589.421 491.64C589.928 493.01 589.65 494.243 589.36 495.627C588.01 502.067 585.49 508.341 583.821 514.718C581.39 524.003 580.569 534.993 576.572 543.685C574.917 547.283 572.6 550.619 571.699 554.515C563.884 561.635 550.105 569.938 541.014 576.466L541.008 548.695C534.683 548.625 518.556 550.187 513.569 548.565L513.116 547.423L511.296 546.974C511.254 548.124 511.416 547.586 510.788 548.581C505.667 550.068 489.795 549.046 483.515 549.003L483.491 575.862Q458.275 558.935 434.401 540.164C431.998 531.524 431.373 522.349 429.645 513.542C427.439 502.304 424.273 491.321 422.023 480.125C444.603 496.304 450.569 512.61 462.978 536.132Q457.862 517.928 453.056 499.64C450.808 491.069 448.854 482.326 446.049 473.925C438.09 467.842 429.093 463.369 421.26 456.927C418.513 450.698 408.389 446.084 403.858 440.451C400.959 436.846 400.075 431.594 398.108 427.399C396.926 424.88 395.162 422.482 394.184 419.9C393.797 418.877 393.566 418.285 392.845 417.431C391.339 413.461 391.34 408.154 390.908 403.893C402.28 418.741 420.955 434.116 439.982 436.702C462.184 439.719 484.738 424.998 504.238 416.188C507.245 433.642 509.348 451.367 512.658 468.738C513.543 457.81 514.314 446.865 516.074 436.035C517.19 429.169 518.89 422.51 520.327 415.718ZM511.059 506.757C510.988 519.623 510.008 534.301 511.296 546.974L513.116 547.423C513.452 532.462 513.5 517.659 512.935 502.701C512.684 501.408 512.622 500.263 511.817 499.191C511.36 501.705 511.464 504.245 511.059 506.757Z"/>
	<path d="M565.688 519.863C566.869 520.041 568.212 520.113 569.345 520.474C567.228 525.936 564.485 531.155 561.654 536.274L565.688 519.863Z"/>
	<path d="M511.059 506.757C511.464 504.245 511.36 501.705 511.817 499.191C512.622 500.263 512.684 501.408 512.935 502.701C513.5 517.659 513.452 532.462 513.116 547.423L511.296 546.974C510.008 534.301 510.988 519.623 511.059 506.757Z"/>
	<path fill="#020B29" d="M468.42 516.363C471.775 513.367 475.631 510.756 479.201 508.01C490.845 499.057 504.057 489.088 512.276 476.779C523.464 491.564 537.307 503.214 551.406 515.091C538.411 510.436 526.376 502.316 513.608 497.689C512.845 499.316 512.956 500.945 512.935 502.701C512.684 501.408 512.622 500.263 511.817 499.191C511.36 501.705 511.464 504.245 511.059 506.757L511.021 496.85C504.184 499.826 497.607 503.562 490.835 506.714C483.456 510.148 475.849 513.041 468.42 516.363Z"/>
</svg>
